<svg xmlns="http://www.w3.org/2000/svg" xmlns:xlink="http://www.w3.org/1999/xlink" id="图层_1" x="0" y="0" version="1.1" viewBox="0 0 374.2 374.2" style="enable-background:new 0 0 374.2 374.2" xml:space="preserve"><style type="text/css">.st0{fill:#fff}.st1{fill:url(#SVGID_1_)}.st2{opacity:.2}.st3{fill:#533e94}.st4{fill:#7800f4}</style><circle cx="186" cy="186.9" r="186" class="st0"/><g><linearGradient id="SVGID_1_" x1="192" x2="192" y1="625.022" y2="798.074" gradientTransform="matrix(1 0 0 1 0 -467.8268)" gradientUnits="userSpaceOnUse"><stop offset="0" style="stop-color:#040000"/><stop offset="1" style="stop-color:#322951"/></linearGradient><path d="M197.7,334.7l-62.2-64.4l-22.1,21.4l-29.1-30.2l124-119.9l91.4,94.5L197.7,334.7z M165.7,241.2l33,34.2 l41.5-40.2l-33-34.2L165.7,241.2z" class="st1"/><g class="st2"><polygon points="255.2 111.2 174.5 189.3 141.4 155.1 211.5 87.4 151.1 87.4 82.1 154.2 173.4 248.6 284.3 141.4" class="st3"/><polygon points="218 72.8 192.9 47 166.2 72.8" class="st3"/></g><g><polygon points="247.7 103.7 166.9 181.8 133.9 147.6 204 79.9 143.6 79.9 74.6 146.6 165.9 241.1 276.8 133.9" class="st4"/><polygon points="210.5 65.3 185.4 39.5 158.7 65.3" class="st4"/></g></g></svg>