<svg xmlns="http://www.w3.org/2000/svg" width="120" height="120" fill="none" viewBox="0 0 120 120"><path fill="url(#paint0_linear_57_11)" d="M41.1298 2.81972C64.4638 1.65474 80.0367 12.3501 94.647 36.8998C112.625 67.1085 103.268 97.6345 84.0157 115.67C96.1889 90.1546 93.6387 79.8798 66.7839 57.9463C39.9287 36.0127 38.1321 17.6183 41.1298 2.81972Z"/><path fill="url(#paint1_linear_57_11)" fill-rule="evenodd" d="M120 60.423C120 85.0767 105.205 106.282 83.9925 115.678C97.5857 103.115 114.034 70.4113 95.3007 39.5536C78.7356 12.2676 54.2545 5.4023 41.1211 2.82C46.9043 0.988254 53.0642 0 59.4553 0C92.8934 0 120 27.0523 120 60.423Z" clip-rule="evenodd"/><path fill="url(#paint2_linear_57_11)" d="M78.8697 117.168C62.9238 119.949 43.7351 109.916 25.3524 83.0881C5.47972 54.0855 16.7316 22.3536 35.9837 4.31836C23.8107 29.8332 26.3608 40.1083 53.2156 62.042C80.0709 83.9755 81.8675 102.37 78.8697 117.168Z"/><path fill="url(#paint3_linear_57_11)" fill-rule="evenodd" d="M0 59.5648C0 34.9112 14.795 13.7061 36.0076 4.31006C22.4147 16.8724 5.96593 49.5765 24.6995 80.4341C41.2646 107.72 65.7457 114.586 78.8791 117.168C73.0959 119 66.936 119.988 60.5449 119.988C27.1069 119.988 0 92.9356 0 59.5648Z" clip-rule="evenodd"/><defs><linearGradient id="paint0_linear_57_11" x1="41.17" x2="84.608" y1="2.82" y2="115.709" gradientUnits="userSpaceOnUse"><stop stop-color="#3A447C"/><stop offset=".524" stop-color="#252945"/><stop offset="1" stop-color="#121114"/></linearGradient><linearGradient id="paint1_linear_57_11" x1="41.13" x2="85.093" y1="3.102" y2="115.75" gradientUnits="userSpaceOnUse"><stop stop-color="#7387F6"/><stop offset=".474" stop-color="#4B548D"/><stop offset="1" stop-color="#1F1D23"/></linearGradient><linearGradient id="paint2_linear_57_11" x1="78.829" x2="35.392" y1="117.168" y2="4.279" gradientUnits="userSpaceOnUse"><stop stop-color="#53347A"/><stop offset=".524" stop-color="#37244D"/><stop offset="1" stop-color="#16141B"/></linearGradient><linearGradient id="paint3_linear_57_11" x1="78.87" x2="34.907" y1="116.886" y2="4.238" gradientUnits="userSpaceOnUse"><stop stop-color="#A868F5"/><stop offset=".474" stop-color="#684692"/><stop offset="1" stop-color="#25222A"/></linearGradient></defs></svg>