<svg xmlns="http://www.w3.org/2000/svg" width="500" height="500" fill="none" viewBox="0 0 500 500"><rect width="500" height="500" fill="#0B0913" rx="250"/><circle cx="310.231" cy="250.088" r="6.778" fill="#E0DAEE"/><circle cx="370.62" cy="189.7" r="6.778" fill="#E0DAEE"/><circle cx="189.453" cy="129.064" r="6.778" fill="#E0DAEE"/><circle cx="129.064" cy="310.231" r="6.778" fill="#E0DAEE"/><circle cx="370.496" cy="129.188" r="5.176" fill="#E0DAEE"/><circle cx="249.719" cy="189.576" r="5.176" fill="#E0DAEE"/><circle cx="249.719" cy="310.354" r="5.176" fill="#E0DAEE"/><circle cx="128.941" cy="370.496" r="5.176" fill="#E0DAEE"/><circle cx="249.719" cy="250.212" r="12.324" fill="#E0DAEE"/><circle cx="189.33" cy="249.719" r="5.176" fill="#E0DAEE"/><circle cx="310.107" cy="370.743" r="5.176" fill="#E0DAEE"/><circle cx="189.453" cy="310.231" r="3.081" fill="#E0DAEE"/><circle cx="189.453" cy="370.62" r="3.081" fill="#E0DAEE"/><circle cx="310.231" cy="189.7" r="3.081" fill="#E0DAEE"/><circle cx="310.231" cy="129.311" r="3.081" fill="#E0DAEE"/><circle cx="128.941" cy="249.719" r="9.859" fill="#E0DAEE"/><circle cx="128.941" cy="189.33" r="9.859" fill="#E0DAEE"/><circle cx="370.496" cy="249.965" r="9.859" fill="#E0DAEE"/><circle cx="370.496" cy="310.354" r="9.859" fill="#E0DAEE"/><circle cx="310.107" cy="310.6" r="12.324" fill="#E0DAEE"/><circle cx="370.496" cy="370.989" r="12.324" fill="#E0DAEE"/><circle cx="189.33" cy="189.576" r="12.324" fill="#E0DAEE"/><circle cx="128.941" cy="129.188" r="12.324" fill="#E0DAEE"/></svg>