<svg xmlns="http://www.w3.org/2000/svg" width="450" height="450" fill="none" viewBox="0 0 450 450"><mask id="mask0_446_22" style="mask-type:alpha" width="450" height="450" x="0" y="0" maskUnits="userSpaceOnUse"><circle cx="225" cy="225" r="225" fill="#D9D9D9"/></mask><g mask="url(#mask0_446_22)"><path fill="#00A3FF" d="M481 -31H-31V481H481V-31Z"/><path fill="#fff" d="M119.988 206.834L117.122 211.231C84.7961 260.819 92.0161 325.763 134.48 367.37C159.461 391.847 192.202 404.087 224.944 404.091C224.944 404.091 224.944 404.091 119.988 206.834Z"/><path fill="#fff" d="M224.935 266.785L119.979 206.834C224.935 404.091 224.935 404.091 224.935 404.091C224.935 361.13 224.935 311.902 224.935 266.785Z" opacity=".6"/><path fill="#fff" d="M330.012 206.834L332.878 211.231C365.204 260.819 357.984 325.763 315.52 367.37C290.539 391.847 257.798 404.087 225.056 404.091C225.056 404.091 225.056 404.091 330.012 206.834Z" opacity=".6"/><path fill="#fff" d="M225.044 266.785L330 206.834C225.045 404.091 225.044 404.091 225.044 404.091C225.044 361.13 225.044 311.902 225.044 266.785Z" opacity=".2"/><path fill="#fff" d="M225.062 132.834V236.233L315.47 184.567L225.062 132.834Z" opacity=".2"/><path fill="#fff" d="M225.077 132.834L134.604 184.566L225.077 236.233V132.834Z" opacity=".6"/><path fill="#fff" d="M225.077 45.875L134.604 184.599L225.077 132.722V45.875Z"/><path fill="#fff" d="M225.062 132.707L315.539 184.586L225.062 45.793V132.707Z" opacity=".6"/></g></svg>