<svg xmlns="http://www.w3.org/2000/svg" xmlns:svg="http://www.w3.org/2000/svg" xmlns:xlink="http://www.w3.org/1999/xlink" id="svg5" width="200mm" height="200mm" version="1.1" viewBox="0 0 200 200"><defs id="defs2"><linearGradient id="linearGradient3910" x1="0" x2="280" y1="140" y2="140" gradientTransform="matrix(0.71428568,1.7411382e-8,-1.7411381e-8,0.71428567,40.787276,-113.37676)" gradientUnits="userSpaceOnUse" xlink:href="#linearGradient3908"/><linearGradient id="linearGradient3908"><stop style="stop-color:#c0c5ce;stop-opacity:1" id="stop3904" offset="0"/><stop style="stop-color:#3b4e6f;stop-opacity:1" id="stop3906" offset=".36"/></linearGradient></defs><g id="layer1"><circle style="fill:url(#linearGradient3910);fill-opacity:1;stroke-width:.714286" id="path298" cx="140.787" cy="-13.377" r="100" transform="rotate(50.427606)"/><g id="g10068" style="fill:#c7e9e9;fill-opacity:1" transform="matrix(0.83333394,0,0,1.0714307,16.666524,-7.1431739)"><path id="path497" style="fill:#97d7d7;fill-opacity:1;stroke-width:.264583" d="M 98.866426,4.090496 37.228974,39.676851 v 71.172709 l 61.637452,35.58636 61.637454,-35.58636 V 39.676851 Z m 0,5.930972 56.500774,32.620869 V 107.88408 L 98.866426,140.50495 42.365119,107.88408 V 42.642337 Z" transform="matrix(0.97343342,0,0,0.98352108,3.7602149,25.977147)"/><path id="path497-9-9" style="fill:#c7e9e9;fill-opacity:1;stroke-width:.264583" d="M 98.866447,4.0903059 37.228888,39.676766 V 110.84969 L 98.866447,146.43615 160.504,110.84969 V 39.676766 Z m 0,21.3514981 43.146163,24.910712 V 100.17331 L 98.866447,125.08402 55.720283,100.17331 V 50.352516 Z" transform="matrix(0.81119451,0,0,0.8196009,19.800179,38.314289)"/><path style="fill:#97d7d7;fill-opacity:1;stroke-width:.264583" id="path497-3" d="m 160.50382,110.84953 -61.637495,35.58643 -61.637497,-35.58643 0,-71.172849 L 98.866326,4.0902557 160.50382,39.676682 Z" transform="matrix(0.48671671,0,0,0.49176055,51.880107,62.988573)"/></g></g></svg>