<svg xmlns="http://www.w3.org/2000/svg" xmlns:xlink="http://www.w3.org/1999/xlink" x="0" y="0" version="1.1" viewBox="0 0 75 75" style="enable-background:new 0 0 75 75" xml:space="preserve"><style type="text/css">.st2{fill:url(#SVGID_1_)}</style><switch><g><g id="Layer_2"><g><g><linearGradient id="SVGID_1_" x1="5.976" x2="79.717" y1="31.073" y2="66.468" gradientUnits="userSpaceOnUse"><stop offset="0" style="stop-color:#13577a"/><stop offset=".317" style="stop-color:#5ab8aa"/><stop offset=".856" style="stop-color:#8dc121"/></linearGradient><path d="M74.2,73.34h-8.54c-1.67,0-3.2-0.95-3.95-2.44h0c-5.6-9.24-12.74-11.95-17.33-11.94V49.6 c4-0.03,7.24,2.78,9.99,6.62L37.5,22.46L20.6,56.27c2.75-3.86,6.01-6.7,10.02-6.67v9.36c-4.6-0.01-11.77,2.71-17.38,12.03h0 c-0.72,1.44-2.19,2.35-3.8,2.35H0.8c-0.21,0-0.35-0.23-0.26-0.42l31.09-62.21l3.93-7.86c0.8-1.6,3.08-1.6,3.88,0l3.93,7.86 l31.09,62.21C74.56,73.12,74.42,73.34,74.2,73.34z M40.62,46.98c-0.54,0.36-1.13,0.63-1.62,1.04 c-0.83,0.68-1.29,1.68-1.51,2.75c-0.44-1.88-1.98-3.52-2.45-5.56c-0.21-0.91-0.29-1.86-0.7-2.7c-0.54-1.11-1.6-1.88-2.66-2.52 c0.84,1.15,0.83,2.7,0.64,4.1c-0.18,1.41-0.5,2.85-0.15,4.23c0.45,1.79,1.93,3.1,3.32,4.3c0.11,0.09,0.22,0.18,0.33,0.28v8.72 c0.99,0.86,1.96,1.75,2.97,2.58V53.37c3.18-2.33,4.16-4.8,4.48-5.79c0.47-1.45-0.14-2.59,1.01-4.89 C42.28,43.7,42.12,45.98,40.62,46.98z" class="st2"/></g></g></g></g></switch></svg>