<svg xmlns="http://www.w3.org/2000/svg" xmlns:xlink="http://www.w3.org/1999/xlink" id="Layer_1" x="0" y="0" version="1.1" viewBox="0 0 125 125" style="enable-background:new 0 0 125 125" xml:space="preserve"><switch><g><g><g><linearGradient id="SVGID_1_" x1="-16.16" x2="121.953" y1="24.744" y2="91.037" gradientUnits="userSpaceOnUse"><stop offset="0" style="stop-color:#13577a"/><stop offset=".317" style="stop-color:#5ab8aa"/><stop offset=".856" style="stop-color:#8dc121"/></linearGradient><circle style="fill:url(#SVGID_1_)" cx="62.5" cy="62.5" r="62.5"/><g style="opacity:.17"><path style="fill:#1a1a1a" d="M110.28664,99.057h-10.8306c-2.12337,0-4.06445-1.19983-5.01381-3.09915l0,0 C87.341,84.23738,78.27839,80.80312,72.46776,80.81882v-11.8771c5.07024-0.03927,9.18716,3.52425,12.66715,8.3954 L63.7354,34.52421L42.30338,77.40221c3.48891-4.90156,7.61874-8.49413,12.70957-8.4547v11.87709 c-5.82997-0.01575-14.93388,3.44073-22.04563,15.25581h0c-0.91182,1.82422-2.77614,2.9766-4.81554,2.9766H17.18417 c-0.27129,0-0.44774-0.28548-0.32645-0.52814l39.43484-78.89526l4.98175-9.96682 c1.01384-2.02836,3.90835-2.02836,4.9222-0.00001l4.9818,9.96683l39.43481,78.89525 C110.73443,98.77151,110.55796,99.057,110.28664,99.057z M67.69186,65.62029c-0.67918,0.45238-1.42827,0.80356-2.05701,1.32346 c-1.04999,0.86775-1.63824,2.13459-1.91045,3.48203c-0.55435-2.38546-2.5122-4.46453-3.10896-7.05704 c-0.26561-1.15236-0.36808-2.36189-0.88831-3.42402c-0.69072-1.41136-2.02837-2.38339-3.36959-3.20196 c1.06322,1.45296,1.04642,3.41866,0.81359,5.20403c-0.23282,1.78537-0.63507,3.61579-0.19313,5.3612 c0.57364,2.26437,2.44221,3.93071,4.21655,5.44993c0.13637,0.11669,0.27827,0.23378,0.42431,0.34909v11.06062 c1.26022,1.08652,2.48105,2.21973,3.77188,3.27029V73.7334c4.03825-2.96107,5.27553-6.09264,5.68059-7.34063 c0.59556-1.83508-0.18248-3.28467,1.27737-6.20438C69.79397,61.46576,69.59621,64.35194,67.69186,65.62029z"/></g></g><g><g><path style="fill:#fdfdfe" d="M41.19893,91.20277c2.38562,1.75154,5.10399,3.10132,7.80351,4.35062 c0.37042,0.17577,0.70313,0.36414,0.98565,0.56499v7.31385c-0.67803,0.06277-1.57578-0.12556-2.75604-0.55875 c-16.34782-6.00174-27.97463-22.51907-28.02486-40.179c-0.05648-18.11821,11.30663-34.6795,27.88049-40.66238 c1.29326-0.4646,2.22867-0.74708,2.90042-0.77222v7.4457c-0.69685,0.41433-1.52554,0.74708-2.32914,1.12374 C22.81701,41.35568,19.25113,75.07467,41.19893,91.20277z"/><path style="fill:#fdfdfe" d="M105.79296,62.64429c0.03139,17.86707-11.18106,34.1898-27.75491,40.23549 c-0.86008,0.3139-1.9901,1.15516-2.93809,1.13631V96.2691c0.03138-0.01885,0.06277-0.03142,0.09418-0.05023 c1.06098-0.55247,2.2161-0.92913,3.26451-1.48788C91.5043,87.74361,98.3975,76.80111,98.22173,62.03531 c-0.18208-14.61509-7.40804-25.18721-20.39087-31.8356c-0.89146-0.452-1.90849-0.69056-2.7309-1.23046v-7.97931 c1.01074-0.09415,2.19729,0.88522,3.07623,1.21793C94.61819,28.39169,105.75529,44.79599,105.79296,62.64429z"/></g><path style="fill:#fdfdfe" d="M71.24528,82.02438c-0.49594,0.20715-0.96051,0.41433-1.39997,0.64033l-0.1758,0.08162 c-1.11118,0.55246-2.26633,0.96683-3.4466,1.24306v7.38914h-7.44566c0,0,0-7.39542,0-7.40171 c0-0.10671-1.87711-0.60899-2.04034-0.65918c-0.72198-0.23856-1.44392-0.4897-2.15962-0.75336 c-0.32018-0.113-0.64037-0.226-0.95427-0.35785c-0.28248-0.113-0.80356-0.23228-1.01702-0.452 c-1.19279-0.59641-2.25377-1.4314-3.1327-2.43585c-1.21793-1.38744-2.07801-3.05112-2.69324-4.77757 c-0.62151-1.75154-0.92916-4.23135-0.92916-4.23135h7.25733c0,0,0.42694,1.36235,0.94798,2.57399 c2.13453,5.00352,9.61786,6.76135,14.03757,3.5345c2.02148-1.47534,2.66814-3.49683,2.42957-5.90759 c-0.21976-2.25377-1.65112-3.58473-3.59731-4.13715c-3.01342-0.85384-6.11473-1.38116-9.17839-2.04663 c-7.0941-1.52554-10.35865-4.60176-10.78555-10.15775c-0.42061-5.49951,1.92734-9.45462,7.42685-11.79005 c1.36859-0.69685,2.79995-1.20536,4.26273-1.51926v-7.28247h7.48962v7.32014c1.40626,0.3139,2.78114,0.80984,4.09325,1.48159 c2.40447,0.93541,4.17487,2.9318,5.43671,5.31118c0.61526,1.16141,1.71391,3.43403,1.71391,3.43403l-6.15453,3.5966 c0,0-1.02747-2.08358-1.58623-3.30151c-2.15962-4.68966-6.00802-4.87799-10.2017-4.34438 c-2.63675,0.33904-4.41343,1.79553-4.75243,4.58295c-0.35785,2.9569,0.90403,5.05376,3.75421,5.79455 c3.45917,0.89775,7.03762,1.34349,10.50935,2.2161c5.98917,1.50045,8.72636,4.40086,9.3102,9.49857 C78.89184,74.69172,76.38065,79.84591,71.24528,82.02438z"/></g></g></g></switch></svg>