<svg xmlns="http://www.w3.org/2000/svg" width="200" height="200" fill="none" viewBox="0 0 200 200"><mask id="mask0_234_474" style="mask-type:alpha" width="200" height="200" x="0" y="0" maskUnits="userSpaceOnUse"><circle cx="100" cy="100" r="100" fill="#D9D9D9"/></mask><g mask="url(#mask0_234_474)"><path fill="#1C1C1C" d="M200 0H0V200H200V0Z"/><path stroke="#06FC99" stroke-opacity=".1" d="M0 5H200"/><path stroke="#06FC99" stroke-opacity=".1" d="M0 10H200"/><path stroke="#06FC99" stroke-opacity=".1" d="M0 15H200"/><path stroke="#06FC99" stroke-opacity=".1" d="M0 20H200"/><path stroke="#06FC99" stroke-opacity=".1" d="M0 25H200"/><path stroke="#06FC99" stroke-opacity=".1" d="M0 30H200"/><path stroke="#06FC99" stroke-opacity=".1" d="M0 35H200"/><path stroke="#06FC99" stroke-opacity=".1" d="M0 40H200"/><path stroke="#06FC99" stroke-opacity=".1" d="M0 45H200"/><path stroke="#06FC99" stroke-opacity=".1" d="M0 50H200"/><path stroke="#06FC99" stroke-opacity=".1" d="M0 55H200"/><path stroke="#06FC99" stroke-opacity=".1" d="M0 60H200"/><path stroke="#06FC99" stroke-opacity=".1" d="M0 65H200"/><path stroke="#06FC99" stroke-opacity=".1" d="M0 70H200"/><path stroke="#06FC99" stroke-opacity=".1" d="M0 75H200"/><path stroke="#06FC99" stroke-opacity=".1" d="M0 80H200"/><path stroke="#06FC99" stroke-opacity=".1" d="M0 85H200"/><path stroke="#06FC99" stroke-opacity=".1" d="M0 90H200"/><path stroke="#06FC99" stroke-opacity=".1" d="M0 95H200"/><path stroke="#06FC99" stroke-opacity=".1" d="M0 100H200"/><path stroke="#06FC99" stroke-opacity=".1" d="M0 105H200"/><path stroke="#06FC99" stroke-opacity=".1" d="M0 110H200"/><path stroke="#06FC99" stroke-opacity=".1" d="M0 115H200"/><path stroke="#06FC99" stroke-opacity=".1" d="M0 120H200"/><path stroke="#06FC99" stroke-opacity=".1" d="M0 125H200"/><path stroke="#06FC99" stroke-opacity=".1" d="M0 130H200"/><path stroke="#06FC99" stroke-opacity=".1" d="M0 135H200"/><path stroke="#06FC99" stroke-opacity=".1" d="M0 140H200"/><path stroke="#06FC99" stroke-opacity=".1" d="M0 145H200"/><path stroke="#06FC99" stroke-opacity=".1" d="M0 150H200"/><path stroke="#06FC99" stroke-opacity=".1" d="M0 155H200"/><path stroke="#06FC99" stroke-opacity=".1" d="M0 160H200"/><path stroke="#06FC99" stroke-opacity=".1" d="M0 165H200"/><path stroke="#06FC99" stroke-opacity=".1" d="M0 170H200"/><path stroke="#06FC99" stroke-opacity=".1" d="M0 175H200"/><path stroke="#06FC99" stroke-opacity=".1" d="M0 180H200"/><path stroke="#06FC99" stroke-opacity=".1" d="M0 185H200"/><path stroke="#06FC99" stroke-opacity=".1" d="M0 190H200"/><path stroke="#06FC99" stroke-opacity=".1" d="M0 195H200"/><path stroke="#06FC99" stroke-opacity=".1" d="M0 200H200"/><path fill="#06FC99" fill-rule="evenodd" d="M148 48V151H52V150.999H70V132.823H52V66.1765H70V48H148ZM84.999 66.1773H129.999V84.3538H84.999V66.1773ZM129.999 117.677H84.999V84.3538L66.9991 84.3546V117.678L84.999 117.677V135.854H129.999V117.677Z" clip-rule="evenodd"/></g></svg>