<svg xmlns="http://www.w3.org/2000/svg" xmlns:xlink="http://www.w3.org/1999/xlink" id="Layer_1" x="0" y="0" version="1.1" viewBox="0 0 1080 1080" style="enable-background:new 0 0 1080 1080" xml:space="preserve"><style type="text/css">.st0{fill:url(#SVGID_1_)}</style><g><g><linearGradient id="SVGID_1_" x1="274.268" x2="776.112" y1="418.188" y2="418.188" gradientUnits="userSpaceOnUse"><stop offset="0" style="stop-color:#3283d9"/><stop offset=".506" style="stop-color:#9f5aed"/><stop offset="1" style="stop-color:#de1d54"/></linearGradient><path d="M684,488.64c-27.48-84.1-106.52-144.89-199.8-144.89c-112.46,0-204.3,88.32-209.93,199.39 c5.68-138.97,120.08-249.9,260.44-249.9c109.07,0,202.5,66.98,241.4,162.05L684,488.64" class="st0"/><linearGradient id="SVGID_00000021823759856289678310000018390260357255164580_" x1="274.268" x2="774.37" y1="689.724" y2="689.724" gradientUnits="userSpaceOnUse"><stop offset="0" style="stop-color:#3283d9"/><stop offset=".506" style="stop-color:#9f5aed"/><stop offset="1" style="stop-color:#de1d54"/></linearGradient><path style="fill:url(#SVGID_00000021823759856289678310000018390260357255164580_)" d="M684,619.27 c-27.48,84.1-106.52,144.89-199.8,144.89c-112.46,0-204.3-88.32-209.93-199.39c5.68,138.97,120.08,249.9,260.44,249.9 c107.48,0,199.76-65.03,239.66-157.89L684,619.27z"/><linearGradient id="SVGID_00000047739771383037461970000004790183810981059471_" x1="478.999" x2="478.999" y1="282.234" y2="784.765" gradientUnits="userSpaceOnUse"><stop offset="0" style="stop-color:#032c57"/><stop offset=".507" style="stop-color:#7036a6"/><stop offset="1" style="stop-color:#ff9983"/></linearGradient><path style="fill:url(#SVGID_00000047739771383037461970000004790183810981059471_)" d="M484.2,764.16 c93.28,0,172.33-60.78,199.8-144.89c-25.18,57.47-82.53,97.63-149.29,97.63c-89.99,0-162.95-72.95-162.95-162.95 s72.96-162.95,162.95-162.95c66.76,0,124.11,40.17,149.29,97.63c-27.48-84.1-106.52-144.89-199.8-144.89 c-112.46,0-204.3,88.32-209.93,199.39c-0.15,3.59-0.27,7.19-0.27,10.82c0,3.63,0.13,7.23,0.27,10.82 C279.9,675.84,371.73,764.16,484.2,764.16z"/></g><g><linearGradient id="SVGID_00000078738247015161314280000013074489425608885633_" x1="59.291" x2="1079.166" y1="9.82" y2="1029.695" gradientUnits="userSpaceOnUse"><stop offset="0" style="stop-color:#3283d9"/><stop offset=".506" style="stop-color:#9f5aed"/><stop offset="1" style="stop-color:#de1d54"/></linearGradient><path style="fill:url(#SVGID_00000078738247015161314280000013074489425608885633_)" d="M233.26,883.62L36.2,542.3L288.1,106 h463.47c7.47,21.44,27.83,36.89,51.78,36.89c30.25,0,54.86-24.61,54.86-54.86s-24.61-54.86-54.86-54.86 c-25.63,0-47.15,17.69-53.15,41.49H270L0,542.3l206.11,356.99c2.9,5.03,8.17,7.84,13.59,7.84c2.66,0,5.35-0.68,7.82-2.1 C235.02,900.7,237.59,891.11,233.26,883.62z M803.35,64.51c12.97,0,23.51,10.55,23.51,23.51s-10.55,23.51-23.51,23.51 s-23.51-10.55-23.51-23.51S790.38,64.51,803.35,64.51z"/><linearGradient id="SVGID_00000103255017986709316110000010396998528728951740_" x1="9.873" x2="1029.748" y1="59.238" y2="1079.113" gradientUnits="userSpaceOnUse"><stop offset="0" style="stop-color:#3283d9"/><stop offset=".506" style="stop-color:#9f5aed"/><stop offset="1" style="stop-color:#de1d54"/></linearGradient><path style="fill:url(#SVGID_00000103255017986709316110000010396998528728951740_)" d="M1080,542.3L873.03,183.82 c-4.32-7.5-13.89-10.06-21.41-5.74c-7.5,4.33-10.07,13.92-5.74,21.41l197.91,342.8l-251.9,436.3H333.98 c-6-23.8-27.51-41.49-53.15-41.49c-30.25,0-54.86,24.61-54.86,54.86s24.61,54.86,54.86,54.86c23.95,0,44.31-15.45,51.78-36.89H810 L1080,542.3z M280.83,1015.49c-12.97,0-23.51-10.55-23.51-23.51s10.55-23.51,23.51-23.51c12.58,0,22.79,9.95,23.4,22.37 c-0.25,1.11-0.41,2.26-0.41,3.44c0,0.49,0.1,0.95,0.14,1.43C302.16,1006.9,292.52,1015.49,280.83,1015.49z"/></g></g></svg>