<svg xmlns="http://www.w3.org/2000/svg" width="162" height="162" fill="none" viewBox="0 0 162 162"><path fill="url(#paint0_linear_5314_8664)" d="M74.1348 3.70544C78.0732 1.43152 82.9257 1.43152 86.8643 3.70544L144.689 37.0906C148.628 39.3645 151.054 43.5668 151.054 48.1147V114.885C151.054 119.433 148.628 123.635 144.689 125.909L86.8643 159.294C82.9257 161.568 78.0732 161.568 74.1348 159.294L16.3099 125.909C12.3714 123.635 9.94519 119.433 9.94519 114.885V48.1147C9.94519 43.5668 12.3714 39.3645 16.3099 37.0906L74.1348 3.70544Z"/><path fill="#fff" d="M115.281 81.5C115.281 100.709 99.7092 116.281 80.5 116.281C61.2908 116.281 45.7188 100.709 45.7188 81.5C45.7188 62.2908 61.2908 46.7188 80.5 46.7188C99.7092 46.7188 115.281 62.2908 115.281 81.5Z"/><mask id="mask0_5314_8664" style="mask-type:alpha" width="71" height="71" x="45" y="46" maskUnits="userSpaceOnUse"><path fill="#fff" d="M115.281 81.5C115.281 100.709 99.7092 116.281 80.5 116.281C61.2908 116.281 45.7188 100.709 45.7188 81.5C45.7188 62.2908 61.2908 46.7188 80.5 46.7188C99.7092 46.7188 115.281 62.2908 115.281 81.5Z"/></mask><g mask="url(#mask0_5314_8664)"><path fill="url(#paint1_linear_5314_8664)" d="M74.9553 153.583C97.2268 153.583 115.281 135.528 115.281 113.257C115.281 90.9852 97.2268 72.9305 74.9553 72.9305C52.6838 72.9305 34.6292 90.9852 34.6292 113.257C34.6292 135.528 52.6838 153.583 74.9553 153.583Z"/><g filter="url(#filter0_i_5314_8664)"><path fill="url(#paint2_linear_5314_8664)" d="M100.663 145.518C122.935 145.518 140.989 127.464 140.989 105.192C140.989 82.9206 122.935 64.866 100.663 64.866C78.3917 64.866 60.3371 82.9206 60.3371 105.192C60.3371 127.464 78.3917 145.518 100.663 145.518Z"/></g><path fill="url(#paint3_linear_5314_8664)" d="M80.5001 167.696C102.772 167.696 120.826 149.642 120.826 127.37C120.826 105.099 102.772 87.0441 80.5001 87.0441C58.2286 87.0441 40.174 105.099 40.174 127.37C40.174 149.642 58.2286 167.696 80.5001 167.696Z"/><g filter="url(#filter1_i_5314_8664)"><path fill="url(#paint4_linear_5314_8664)" d="M118.306 153.583C140.577 153.583 158.632 135.528 158.632 113.257C158.632 90.9852 140.577 72.9305 118.306 72.9305C96.0345 72.9305 77.9799 90.9852 77.9799 113.257C77.9799 135.528 96.0345 153.583 118.306 153.583Z"/></g></g><defs><filter id="filter0_i_5314_8664" width="80.652" height="83.584" x="60.337" y="64.866" color-interpolation-filters="sRGB" filterUnits="userSpaceOnUse"><feFlood flood-opacity="0" result="BackgroundImageFix"/><feBlend in="SourceGraphic" in2="BackgroundImageFix" mode="normal" result="shape"/><feColorMatrix in="SourceAlpha" result="hardAlpha" type="matrix" values="0 0 0 0 0 0 0 0 0 0 0 0 0 0 0 0 0 0 127 0"/><feOffset dy="2.931"/><feGaussianBlur stdDeviation="3.664"/><feComposite in2="hardAlpha" k2="-1" k3="1" operator="arithmetic"/><feColorMatrix type="matrix" values="0 0 0 0 0 0 0 0 0 0 0 0 0 0 0 0 0 0 0.1 0"/><feBlend in2="shape" mode="normal" result="effect1_innerShadow_5314_8664"/></filter><filter id="filter1_i_5314_8664" width="80.652" height="83.584" x="77.98" y="72.93" color-interpolation-filters="sRGB" filterUnits="userSpaceOnUse"><feFlood flood-opacity="0" result="BackgroundImageFix"/><feBlend in="SourceGraphic" in2="BackgroundImageFix" mode="normal" result="shape"/><feColorMatrix in="SourceAlpha" result="hardAlpha" type="matrix" values="0 0 0 0 0 0 0 0 0 0 0 0 0 0 0 0 0 0 127 0"/><feOffset dy="2.931"/><feGaussianBlur stdDeviation="3.664"/><feComposite in2="hardAlpha" k2="-1" k3="1" operator="arithmetic"/><feColorMatrix type="matrix" values="0 0 0 0 0 0 0 0 0 0 0 0 0 0 0 0 0 0 0.1 0"/><feBlend in2="shape" mode="normal" result="effect1_innerShadow_5314_8664"/></filter><linearGradient id="paint0_linear_5314_8664" x1="80.499" x2="80.499" y1="-.481" y2="163.481" gradientUnits="userSpaceOnUse"><stop/><stop offset="1" stop-color="#2D3749"/></linearGradient><linearGradient id="paint1_linear_5314_8664" x1="40.987" x2="78.708" y1="88.533" y2="106.577" gradientUnits="userSpaceOnUse"><stop stop-color="#30FFB4"/><stop offset="1" stop-color="#00B68A"/></linearGradient><linearGradient id="paint2_linear_5314_8664" x1="69.376" x2="109.528" y1="85.975" y2="105.282" gradientUnits="userSpaceOnUse"><stop stop-color="#FFE353"/><stop offset="1" stop-color="#01E887"/></linearGradient><linearGradient id="paint3_linear_5314_8664" x1="57.817" x2="83.656" y1="107.46" y2="114.947" gradientUnits="userSpaceOnUse"><stop stop-color="#30FFB4"/><stop offset="1" stop-color="#00B68A"/></linearGradient><linearGradient id="paint4_linear_5314_8664" x1="85.851" x2="118.306" y1="97.108" y2="111.493" gradientUnits="userSpaceOnUse"><stop stop-color="#FFE353"/><stop offset="1" stop-color="#01E887"/></linearGradient></defs></svg>