<svg xmlns="http://www.w3.org/2000/svg" xmlns:xlink="http://www.w3.org/1999/xlink" width="100" height="100" version="1.1" viewBox="0 0 100 100"><title>kuji copy</title><g id="kuji-copy" fill="none" fill-rule="evenodd" stroke="none" stroke-width="1"><circle id="Oval" cx="50" cy="50" r="49" fill="#22242F"/><path id="Oval-Copy-3" fill="#E53935" fill-rule="nonzero" d="M50,0 C77.6142375,0 100,22.3857625 100,50 C100,77.6142375 77.6142375,100 50,100 C22.3857625,100 0,77.6142375 0,50 C0,22.3857625 22.3857625,0 50,0 Z M50,5 C25.1471863,5 5,25.1471863 5,50 C5,74.8528137 25.1471863,95 50,95 C74.8528137,95 95,74.8528137 95,50 C95,25.1471863 74.8528137,5 50,5 Z"/><g id="Group-Copy" fill="#E53935" transform="translate(14.9895, 18)"><rect id="Rectangle" width="27.658" height="5.033" x="6.258" y="17.958"/><rect id="Rectangle-Copy-5" width="25.144" height="5.033" x="38.945" y="17.958"/><rect id="Rectangle-Copy-9" width="25.144" height="5.033" x="38.945" y="9.15"/><rect id="Rectangle-Copy-11" width="16.344" height="5.033" x="11.287" y="9.15"/><polygon id="Rectangle-Copy-10" points="43.723 4.496 55.043 4.502 55.045 9.533 43.725 9.527" transform="translate(49.3838, 7.0145) rotate(-315) translate(-49.3838, -7.0145)"/><polygon id="Rectangle-Copy-14" points="17.656 14.342 27.719 14.338 27.717 19.368 17.653 19.373" transform="translate(22.6863, 16.8554) rotate(125) translate(-22.6863, -16.8554)"/><polygon id="Rectangle-Copy-13" points="-3.566 9.757 22.851 9.746 22.849 14.776 -3.568 14.787" transform="translate(9.6417, 12.2666) rotate(125) translate(-9.6417, -12.2666)"/><polygon id="Rectangle-Copy-15" points="35.44 46.808 46.763 46.804 46.761 51.833 35.438 51.837" transform="translate(41.1003, 49.3205) rotate(115) translate(-41.1003, -49.3205)"/><polygon id="Rectangle-Copy-16" points="54.101 49.089 70.457 49.084 70.455 54.113 54.099 54.119" transform="translate(62.2781, 51.6013) scale(-1, 1) rotate(115) translate(-62.2781, -51.6013)"/><rect id="Rectangle-Copy-6" width="25.144" height="5.033" x="38.945" y="34.316"/><rect id="Rectangle-Copy-17" width="11.315" height="5.033" x="42.717" y="56.967"/><rect id="Rectangle-Copy" width="25.144" height="5.033" x="7.515" y="39.35"/><rect id="Rectangle-Copy-4" width="22.63" height="3.775" x="8.772" y="29.283"/><rect id="Rectangle" width="5.029" height="22.65" x="6.258" y="21.733"/><rect id="Rectangle-Copy-2" width="5.029" height="22.65" x="17.573" y="21.733"/><rect id="Rectangle-Copy-7" width="5.029" height="13.842" x="38.945" y="21.733"/><rect id="Rectangle-Copy-12" width="5.029" height="25.167" x="49.003" y="36.833"/><rect id="Rectangle-Copy-18" width="5.029" height="11.325" x="6.258" y="48.158"/><rect id="Rectangle-Copy-19" width="5.029" height="11.325" x="13.801" y="48.158"/><rect id="Rectangle-Copy-20" width="5.029" height="11.325" x="21.344" y="48.158"/><rect id="Rectangle-Copy-21" width="5.029" height="5.033" x="28.887" y="48.158"/><rect id="Rectangle-Copy-8" width="5.029" height="13.842" x="59.06" y="21.733"/><rect id="Rectangle-Copy-3" width="5.029" height="22.65" x="28.887" y="21.733"/></g></g></svg>