<svg xmlns="http://www.w3.org/2000/svg" width="500" height="500" fill="none" viewBox="0 0 500 500"><g clip-path="url(#clip0_935_885)"><mask id="mask0_935_885" style="mask-type:alpha" width="500" height="500" x="0" y="0" maskUnits="userSpaceOnUse"><rect width="500" height="500" fill="#D9D9D9"/></mask><g mask="url(#mask0_935_885)"><g clip-path="url(#clip1_935_885)"><mask id="mask1_935_885" style="mask-type:alpha" width="500" height="500" x="0" y="0" maskUnits="userSpaceOnUse"><path fill="#D9D9D9" d="M250 500C388.071 500 500 388.071 500 250C500 111.929 388.071 0 250 0C111.929 0 0 111.929 0 250C0 388.071 111.929 500 250 500Z"/></mask><g mask="url(#mask1_935_885)"><path fill="#00A3FF" d="M534.444 -34.4443H-34.4445V534.445H534.444V-34.4443Z"/><path fill="#fff" d="M133.32 229.815L130.136 234.701C94.2179 289.799 102.24 361.959 149.422 408.189C177.179 435.385 213.558 448.985 249.938 448.99C249.938 448.99 249.938 448.99 133.32 229.815Z"/><path fill="#fff" d="M249.928 296.428L133.31 229.815C249.928 448.99 249.928 448.99 249.928 448.99C249.928 401.255 249.928 346.558 249.928 296.428Z" opacity=".6"/><path fill="#fff" d="M366.68 229.815L369.864 234.701C405.782 289.799 397.76 361.959 350.578 408.189C322.821 435.385 286.442 448.985 250.062 448.99C250.062 448.99 250.062 448.99 366.68 229.815Z" opacity=".6"/><path fill="#fff" d="M250.049 296.428L366.667 229.815C250.05 448.99 250.049 448.99 250.049 448.99C250.049 401.255 250.049 346.558 250.049 296.428Z" opacity=".2"/><path fill="#fff" d="M250.069 147.594V262.482L350.522 205.075L250.069 147.594Z" opacity=".2"/><path fill="#fff" d="M250.086 147.594L149.56 205.074L250.086 262.482V147.594Z" opacity=".6"/><path fill="#fff" d="M250.086 50.9727L149.56 205.11L250.086 147.469V50.9727Z"/><path fill="#fff" d="M250.069 147.452L350.599 205.095L250.069 50.8809V147.452Z" opacity=".6"/></g></g></g></g><g clip-path="url(#clip2_935_885)"><path fill="#fff" d="M399.7 499.5C454.818 499.5 499.5 454.818 499.5 399.7C499.5 344.582 454.818 299.899 399.7 299.899C344.582 299.899 299.899 344.582 299.899 399.7C299.899 454.818 344.582 499.5 399.7 499.5Z"/><path fill="#000" d="M408.715 387.451L456.071 340.097L438.105 322.134L399.734 360.505L361.362 322.134L343.398 340.097L390.752 387.451C393.232 389.931 396.483 391.172 399.734 391.172C402.984 391.172 406.235 389.932 408.715 387.451ZM477.267 438.038L438.896 399.667L477.267 361.295L459.303 343.332L411.95 390.686C406.99 395.646 406.99 403.689 411.95 408.649L459.303 456.003L477.267 438.038ZM399.668 438.894L438.039 477.265L456.002 459.301L408.649 411.948C403.688 406.987 395.647 406.987 390.685 411.948L343.332 459.301L361.297 477.265L399.668 438.894ZM387.452 408.714C389.835 406.331 391.173 403.101 391.173 399.733C391.173 396.364 389.835 393.133 387.452 390.75L340.099 343.397L322.135 361.362L360.506 399.733L322.135 438.104L340.099 456.068L387.452 408.714Z"/></g><circle cx="400" cy="400" r="97.5" stroke="#000" stroke-width="5"/><defs><clipPath id="clip0_935_885"><rect width="500" height="500" fill="#fff" rx="250"/></clipPath><clipPath id="clip1_935_885"><rect width="500" height="500" fill="#fff"/></clipPath><clipPath id="clip2_935_885"><rect width="200" height="200" fill="#fff" transform="translate(299.6 299.6)"/></clipPath></defs></svg>