<svg xmlns="http://www.w3.org/2000/svg" width="32" height="32" fill="none" viewBox="0 0 32 32"><path fill="url(#paint0_linear_1263_815)" d="M16 32C24.8366 32 32 24.8366 32 16C32 7.16344 24.8366 0 16 0C7.16344 0 0 7.16344 0 16C0 24.8366 7.16344 32 16 32Z"/><path fill="#1A1B2A" d="M15.6992 9.2V14.5232L20.1982 16.5338L15.6992 9.2Z"/><path fill="#1A1B2A" d="M15.6992 9.2L11.2 16.5338L15.6992 14.5232V9.2Z"/><path fill="#1A1B2A" d="M15.6992 19.9828V23.5998L20.2008 17.3711L15.6992 19.9828Z"/><path fill="#1A1B2A" d="M15.6992 23.5998V19.9828L11.2 17.3711L15.6992 23.5998Z"/><path fill="#1A1B2A" fill-opacity=".6" d="M15.6992 19.1455L20.1982 16.5338L15.6992 14.5258V19.1455Z"/><path fill="#1A1B2A" fill-opacity=".6" d="M11.2 16.5338L15.6992 19.1455V14.5258L11.2 16.5338Z"/><defs><linearGradient id="paint0_linear_1263_815" x1="16" x2="16" y1="0" y2="32" gradientUnits="userSpaceOnUse"><stop offset=".109" stop-color="#FDEA78"/><stop offset=".734" stop-color="#A2E65A"/></linearGradient></defs></svg>