<svg xmlns="http://www.w3.org/2000/svg" xmlns:svg="http://www.w3.org/2000/svg" id="svg848" width="1024" height="1024" enable-background="new" version="1.1"><defs id="defs852"><filter id="filter935" style="color-interpolation-filters:sRGB"><feBlend id="feBlend937" in2="BackgroundImage" mode="soft-light"/></filter><filter style="color-interpolation-filters:sRGB" id="filter935-8"><feBlend id="feBlend937-2" in2="BackgroundImage" mode="normal"/></filter><filter style="color-interpolation-filters:sRGB" id="filter935-1"><feBlend id="feBlend937-20" in2="BackgroundImage" mode="normal"/></filter><filter style="color-interpolation-filters:sRGB" id="filter935-3"><feBlend id="feBlend937-7" in2="BackgroundImage" mode="normal"/></filter></defs><style id="style15897"/><metadata id="metadata5">image/svg+xml</metadata><g id="layer2" display="none" style="opacity:1;stop-opacity:1"><g id="g889" fill="none" stroke="gray" stroke-miterlimit="4" stroke-width="0" display="inline" transform="matrix(3.65996,0,0,3.65996,-19.3312,-19.3312)"><path id="path861" fill="none" fill-opacity=".73" stroke="gray" stroke-linecap="round" stroke-linejoin="round" stroke-miterlimit="4" stroke-width="50" d="M 145.18,279.4 28.94,212.29 V 78.07 L 145.18,10.96 261.42,78.07 v 134.22 z"/></g></g><g style="display:inline;filter:url(#filter935)" id="layer3"><path d="M 717.49657,-69.659874 A 752.32654,752.32654 0 0 1 -34.829951,682.66666 m 4.1e-5,3e-5 A 752.32654,752.32654 0 0 1 717.4966,-69.65985" transform="matrix(-0.88888889,0,0,-0.88888889,815.4074,784.4475)" style="display:inline;opacity:1;fill:none;fill-rule:evenodd;stroke:gray;stroke-width:56.25;stroke-linecap:round;stroke-linejoin:round;stroke-miterlimit:4;stroke-dasharray:none;paint-order:fill markers stroke;filter:url(#filter935)" id="path901-3"/><path id="path901-3-0" style="display:inline;opacity:1;fill:none;fill-rule:evenodd;stroke:gray;stroke-width:56.25;stroke-linecap:round;stroke-linejoin:round;stroke-miterlimit:4;stroke-dasharray:none;paint-order:fill markers stroke;filter:url(#filter935-8)" d="M 717.49657,-69.659874 A 752.32654,752.32654 0 0 1 -34.829951,682.66666 m 4.1e-5,3e-5 A 752.32654,752.32654 0 0 1 717.4966,-69.65985" transform="matrix(-0.62853936,-0.62853936,0.62853936,-0.62853936,533.89196,919.19091)"/><path id="path901-3-1" style="display:inline;opacity:1;fill:none;fill-rule:evenodd;stroke:gray;stroke-width:56.25;stroke-linecap:round;stroke-linejoin:round;stroke-miterlimit:4;stroke-dasharray:none;paint-order:fill markers stroke;filter:url(#filter935-1)" d="M 717.49657,-69.659874 A 752.32654,752.32654 0 0 1 -34.829951,682.66666 m 4.1e-5,3e-5 A 752.32654,752.32654 0 0 1 717.4966,-69.65985" transform="matrix(0,-0.88888889,0.88888889,0,239.5525,815.4074)"/><path id="path901-3-16" style="display:inline;opacity:1;fill:none;fill-rule:evenodd;stroke:gray;stroke-width:56.25;stroke-linecap:round;stroke-linejoin:round;stroke-miterlimit:4;stroke-dasharray:none;paint-order:fill markers stroke;filter:url(#filter935-3)" d="M 717.49657,-69.659874 A 752.32654,752.32654 0 0 1 -34.829951,682.66666 m 4.1e-5,3e-5 A 752.32654,752.32654 0 0 1 717.4966,-69.65985" transform="matrix(-0.62853936,0.62853936,-0.62853936,-0.62853936,919.1909,490.10805)"/></g><g style="display:inline" id="layer4"><circle id="path931" cx="512.01" cy="512.01" r="25.54" fill="none" stroke="gray" stroke-linecap="round" stroke-linejoin="round" stroke-miterlimit="4" stroke-width="50" style="opacity:1;stop-opacity:1"/><path d="M 181.37142,842.62856 A 661.25714,661.25714 0 0 1 842.62855,181.3714 m 3e-5,5e-5 A 661.25714,661.25714 0 0 1 181.37145,842.6286" style="display:none;opacity:.5;fill:#fff;fill-rule:evenodd;stroke:gray;stroke-width:50;stroke-linecap:round;stroke-linejoin:round;stroke-miterlimit:4;stroke-dasharray:none;paint-order:fill markers stroke" id="path873-5"/></g></svg>