<svg xmlns="http://www.w3.org/2000/svg" xmlns:xlink="http://www.w3.org/1999/xlink" id="图层_1" x="0" y="0" version="1.1" viewBox="0 0 1000 1000" style="enable-background:new 0 0 1000 1000" xml:space="preserve"><style type="text/css">.st0{fill:url(#SVGID_1_)}.st1{fill:url(#SVGID_2_)}.st2{fill:url(#SVGID_3_)}.st3{fill:url(#SVGID_4_)}.st4{fill:url(#SVGID_5_)}.st5{fill:url(#SVGID_6_)}.st6{fill:url(#SVGID_7_)}</style><g><linearGradient id="SVGID_1_" x1="96.097" x2="876.077" y1="97.498" y2="877.477" gradientTransform="matrix(1 0 0 -1 0 1000)" gradientUnits="userSpaceOnUse"><stop offset="0" style="stop-color:#009dde"/><stop offset=".5" style="stop-color:#694d9f"/><stop offset="1" style="stop-color:#ed3554"/></linearGradient><path d="M303.5,724.7L74.1,750.5l134.7-310.8l-137.9-188l335.3-38.2L497.3,4l199.6,271.3l229.4-25.8L792.2,558.8 l136.9,186.7l-333.6,38L503,996L303.5,724.7z M398.8,704.1c-8.8,4.3-18.2,7.9-27.9,10.6l-8.8,2.4l129.3,175.8l45.9-105.6l-8.3-1.1 c-45.2-5.7-86.3-30.1-112.8-66.7l-12.9-17.8L398.8,704.1z M353.8,544.7L458.1,689c21.2,29.3,55.5,46.8,91.7,46.8 c4.2,0,8.4-0.2,12.5-0.7l272.2-31L726.1,556.2c-5.4-7.3-11.6-13.9-18.5-19.7l-6.4-5.3l-77.6,175.3l-135-178.7L353.8,544.7z M358.3,369c-40.4,4.3-75.6,30.2-91.8,67.6L157.2,688.9l181.6-20.4c9-1,17.8-3.1,26.3-6.2l7.8-2.9L260.5,504.2l221.6-28.1 l52.7-125.9L358.3,369z M529.8,496.3L611.9,605L662,491.9l22-49.8c16.5-37.3,11.8-80.8-12.4-113.6L508.9,107.1l-73.2,168.2 c-3.6,8.3-6.2,17-7.8,26l-1.4,8.2l189.9-20.1L529.8,496.3z M729.3,323.9l3.2,7.7c17.6,42.1,17.2,90.1-1.2,131.6l-8.9,20l4.3,2.9 c8.2,5.5,15.9,11.9,23,19l6.5,6.4L843.1,311L729.3,323.9z M165.5,293.1l69.2,94.4l5.1-6.6c27.5-35.7,68.8-58.9,113.1-63.6l21.7-2.3 l0.4-5.3c0.7-10.9,2.6-21.8,5.5-32.4l2.5-9L165.5,293.1z" class="st0"/><linearGradient id="SVGID_2_" x1="181.197" x2="961.177" y1="12.397" y2="792.377" gradientTransform="matrix(1 0 0 -1 0 1000)" gradientUnits="userSpaceOnUse"><stop offset="0" style="stop-color:#009dde"/><stop offset=".5" style="stop-color:#694d9f"/><stop offset="1" style="stop-color:#ed3554"/></linearGradient><path d="M451.6,1000c-144-13.9-273.4-88.8-358.1-207.5l58-6.5c9.6,11.8,19.8,23.1,30.3,33.7 c62.9,63.2,141.6,105.8,227.9,123.4L451.6,1000z" class="st1"/><linearGradient id="SVGID_3_" x1="403.727" x2="1183.707" y1="-210.132" y2="569.848" gradientTransform="matrix(1 0 0 -1 0 1000)" gradientUnits="userSpaceOnUse"><stop offset="0" style="stop-color:#009dde"/><stop offset=".5" style="stop-color:#694d9f"/><stop offset="1" style="stop-color:#ed3554"/></linearGradient><path d="M572.4,946.3c93.4-15.1,178.3-58.8,245.8-126.6c6-6.1,12.1-12.6,18.2-19.4l70.3-8 C822.3,910.9,693.1,985.9,549.1,1000L572.4,946.3z" class="st2"/><linearGradient id="SVGID_4_" x1="324.472" x2="1104.452" y1="-130.877" y2="649.102" gradientTransform="matrix(1 0 0 -1 0 1000)" gradientUnits="userSpaceOnUse"><stop offset="0" style="stop-color:#009dde"/><stop offset=".5" style="stop-color:#694d9f"/><stop offset="1" style="stop-color:#ed3554"/></linearGradient><path d="M921,660.3c19.2-51.1,29-105,29-160.3c0-48.8-7.7-96.8-22.8-142.6l28.2-65C985,357.7,1000,427.5,1000,500 c0,72.4-15,142.1-44.5,207.4L921,660.3z" class="st3"/><linearGradient id="SVGID_5_" x1="-130.928" x2="649.052" y1="324.522" y2="1104.502" gradientTransform="matrix(1 0 0 -1 0 1000)" gradientUnits="userSpaceOnUse"><stop offset="0" style="stop-color:#009dde"/><stop offset=".5" style="stop-color:#694d9f"/><stop offset="1" style="stop-color:#ed3554"/></linearGradient><path d="M44.8,708.1C15.1,642.6,0,572.7,0,500c0-73.1,15.2-143.4,45.3-209.1l34.4,47C60,389.5,50,444,50,500 c0,49,7.7,97.1,22.9,143.1L44.8,708.1z" class="st4"/><linearGradient id="SVGID_6_" x1="-210.017" x2="569.963" y1="403.612" y2="1183.592" gradientTransform="matrix(1 0 0 -1 0 1000)" gradientUnits="userSpaceOnUse"><stop offset="0" style="stop-color:#009dde"/><stop offset=".5" style="stop-color:#694d9f"/><stop offset="1" style="stop-color:#ed3554"/></linearGradient><path d="M95.6,204.6C180.2,87.8,308.6,13.8,451.3,0L428,53.6c-93.5,15-178.6,58.8-246.2,126.7 c-5.1,5.1-10.2,10.6-15.3,16.2L95.6,204.6z" class="st5"/><linearGradient id="SVGID_7_" x1="12.497" x2="792.477" y1="181.097" y2="961.077" gradientTransform="matrix(1 0 0 -1 0 1000)" gradientUnits="userSpaceOnUse"><stop offset="0" style="stop-color:#009dde"/><stop offset=".5" style="stop-color:#694d9f"/><stop offset="1" style="stop-color:#ed3554"/></linearGradient><path d="M848.6,214c-9.6-11.8-19.8-23.1-30.4-33.7C755.4,117.2,676.8,74.6,590.7,57L548.8,0 c143.9,14,273.1,88.9,357.7,207.5L848.6,214z" class="st6"/></g></svg>