<svg xmlns="http://www.w3.org/2000/svg" width="256" height="256" fill="none" viewBox="0 0 256 256"><rect width="256" height="256" fill="#000"/><g clip-path="url(#clip0_8_22)"><mask id="mask0_8_22" style="mask-type:luminance" width="126" height="126" x="65" y="65" maskUnits="userSpaceOnUse"><path fill="#fff" d="M190.894 65.1056H65.1056V190.894H190.894V65.1056Z"/></mask><g mask="url(#mask0_8_22)"><path fill="#fff" d="M190.894 65.1056H74.0155L107.29 104.335C112.822 99.4894 120.068 96.5528 128 96.5528C145.368 96.5528 159.447 110.632 159.447 128C159.447 135.834 156.583 142.999 151.844 148.504L190.894 182.105V65.1056Z"/><path fill="#fff" d="M175.499 190.894L144.573 154.731C139.761 157.721 134.082 159.447 128 159.447C110.632 159.447 96.5528 145.368 96.5528 128C96.5528 121.973 98.2485 116.341 101.189 111.557L65.1056 80.1355V190.894H175.499Z"/></g></g><defs><clipPath id="clip0_8_22"><rect width="125.789" height="125.789" fill="#fff" transform="translate(65.1056 65.1056)"/></clipPath></defs></svg>