<svg xmlns="http://www.w3.org/2000/svg" width="400" height="400" fill="none" viewBox="0 0 400 400"><circle cx="200" cy="200" r="200" fill="#fff"/><g clip-path="url(#clip0_1155_6)"><g filter="url(#filter0_i_1155_6)"><path fill="#55A4F7" fill-rule="evenodd" d="M316.894 245.158L255.548 228.723C249.925 227.198 245.115 223.538 242.202 218.489L205.584 155.02C202.67 149.972 201.892 143.973 203.382 138.348L219.811 76.9465C221.098 72.1007 227.636 71.2196 230.142 75.591L323.229 236.89C325.735 241.227 321.738 246.479 316.894 245.158ZM181.424 76.9549L197.852 138.323C199.377 143.949 198.564 149.946 195.651 154.995L159.032 218.464C156.12 223.513 151.309 227.207 145.686 228.698L84.3401 245.166C79.4961 246.454 75.4989 241.236 78.0056 236.898L171.092 75.5995C173.598 71.2621 180.136 72.1092 181.424 76.9549ZM148.435 233.871L103.518 278.805C99.9616 282.363 102.502 288.428 107.516 288.428H293.722C298.77 288.428 301.276 282.363 297.719 278.805L252.802 233.871C248.67 229.737 243.08 227.432 237.254 227.432H163.984C158.158 227.432 152.568 229.737 148.435 233.871Z" clip-rule="evenodd"/></g></g><defs><filter id="filter0_i_1155_6" width="257.054" height="225.954" x="77.234" y="72.762" color-interpolation-filters="sRGB" filterUnits="userSpaceOnUse"><feFlood flood-opacity="0" result="BackgroundImageFix"/><feBlend in="SourceGraphic" in2="BackgroundImageFix" mode="normal" result="shape"/><feColorMatrix in="SourceAlpha" result="hardAlpha" type="matrix" values="0 0 0 0 0 0 0 0 0 0 0 0 0 0 0 0 0 0 127 0"/><feOffset dx="10.288" dy="10.288"/><feGaussianBlur stdDeviation="10.288"/><feComposite in2="hardAlpha" k2="-1" k3="1" operator="arithmetic"/><feColorMatrix type="matrix" values="0 0 0 0 0 0 0 0 0 0 0 0 0 0 0 0 0 0 0.2 0"/><feBlend in2="shape" mode="normal" result="effect1_innerShadow_1155_6"/></filter><clipPath id="clip0_1155_6"><rect width="247" height="217" fill="#fff" transform="translate(77 72)"/></clipPath></defs></svg>