<svg xmlns="http://www.w3.org/2000/svg" width="180" height="180" fill="none" viewBox="0 0 180 180"><mask id="mask0_2_26" style="mask-type:alpha" width="180" height="180" x="0" y="0" maskUnits="userSpaceOnUse"><path fill="#fff" d="M139.985 0H40.0154C17.9155 0 0 17.9155 0 40.0154V139.985C0 162.084 17.9155 180 40.0154 180H139.985C162.084 180 180 162.084 180 139.985V40.0154C180 17.9155 162.084 0 139.985 0Z"/></mask><g mask="url(#mask0_2_26)"><path fill="#fff" d="M-0.184631 10.3732C-0.184631 4.54211 4.54243 -0.184952 10.3735 -0.184952H169.505C175.336 -0.184952 180.063 4.5421 180.063 10.3732V169.505C180.063 175.336 175.336 180.063 169.505 180.063H10.3736C4.54243 180.063 -0.184631 175.336 -0.184631 169.505V10.3732Z"/><path fill="url(#paint0_diamond_2_26)" d="M0 0H180.289V180.289H0V0Z"/></g><g clip-path="url(#clip0_2_26)"><path fill="#000" d="M85.3976 87.7312L0 45.6172V139.985C0 162.084 17.9156 180 40.0154 180H134.383L86.0638 88.3789C85.9157 88.0976 85.6826 87.87 85.3976 87.7293V87.7312Z"/><path fill="#000" d="M139.985 0H45.6172L94.5932 91.9487C94.7412 92.2281 94.9744 92.452 95.2575 92.5927L180.002 134.383V40.0154C180 17.9156 162.084 0 139.985 0Z"/></g><defs><radialGradient id="paint0_diamond_2_26" cx="0" cy="0" r="1" gradientTransform="translate(90.1445 90.1445) rotate(-135) scale(152.98 115.372)" gradientUnits="userSpaceOnUse"><stop offset=".141" stop-color="#FFFBD8"/><stop offset=".307" stop-color="#5FECDB" stop-opacity=".64"/><stop offset=".521" stop-color="#4FBAF7"/><stop offset=".792" stop-color="#A745F4"/></radialGradient><clipPath id="clip0_2_26"><rect width="180" height="180" fill="#fff"/></clipPath></defs></svg>